<svg id="Layer_1" data-name="Layer 1" xmlns="http://www.w3.org/2000/svg" width="802.6038" height="804.5271" viewBox="0 0 802.6038 804.5271"><title>filterface</title><g id="C6uMDR.tif"><path d="M1248.7431,414.8268c39.0665-29.41,45.78-28.9041,61.8258,14.3514,59.256,159.7365,34.9141,306.6892-82.9912,429.7668-113.6763,118.6631-255.6055,153.358-412.3542,102.0311-155.7224-50.9906-247.7054-163.3158-271.0069-324-22.2709-153.5789,31.8647-282.8588,156.5966-376.3912,118.778-89.0673,251.0749-102.5984,389.7454-51.3056,44.155,16.3324,44.2044,19.6061,15.6636,66.2782-112.5075-54.882-226.3823-56.8723-337.9383,5.2369C704.976,316.0421,657.9365,367.3286,627.7593,433.41c-65.4839,143.3954-30.7417,306.0594,87.1967,409.8311,112.397,98.8962,282.2645,110.2225,415.53,25.5041,75.3639-47.91,122.7754-117.346,145.541-203.7833C1293.2307,599.6413,1289,535,1248.7431,414.8268Z" transform="translate(-539.3298 -179.4729)"/><path d="M794.8664,727.3216c11.6641-12.0949,21.9346-22.7451,33.6266-34.869,44.6556,33.3744,90.3812,55.4957,144.9124,40.44,16.6347-4.5927,35.1345-9.3756,47.805-20.0032,30.9258-25.94,46.9272-10.58,61.5989,16.3073C1039.6337,800.2954,872.5633,824.46,794.8664,727.3216Z" transform="translate(-539.3298 -179.4729)"/><path d="M794.453,512.22c25.681.2782,46.6044,21.8935,44.2517,47.7984-2.4564,27.0413-17.6137,42.8026-45.8086,41.6464-27.1063-1.1117-43.4923-15.5989-44.65-43.3849C747.1555,532.1006,768.2224,511.9358,794.453,512.22Z" transform="translate(-539.3298 -179.4729)"/><path d="M1132.103,560.2632c-2.9054,22.7316-15.0521,40.264-43.2461,41.8493-25.6028,1.44-49.2412-19.5159-47.9267-44.2512,1.4048-26.4382,15.4517-43.3028,43.4429-44.8419C1111.4154,511.5323,1131.678,530.51,1132.103,560.2632Z" transform="translate(-539.3298 -179.4729)"/></g><path d="M1216.9873,392.312a294.9042,294.9042,0,0,0-29.8359,13.9609q-11.1168,6.2052-17.3213,12.3067-6.1041,6.1024-12.3067,17.1665a295.13,295.13,0,0,0-14.1679,30.3008h-4.24a307.5826,307.5826,0,0,0-14.2714-30.3008q-6.2037-11.0648-12.2022-17.1665-6.2051-6.1011-17.3223-12.3067a291.3535,291.3535,0,0,0-29.9384-13.9609v-4.24a287.57,287.57,0,0,0,30.042-13.961q11.1152-6.205,17.2187-12.3061,5.9957-6.1011,12.2022-17.167a307.4387,307.4387,0,0,0,14.2714-30.3008h4.24a294.9976,294.9976,0,0,0,14.1679,30.3008q6.2052,11.0669,12.3067,17.167,5.9955,6.1024,17.1152,12.3061a287.2774,287.2774,0,0,0,30.042,13.961Z" transform="translate(-539.3298 -179.4729)"/><path d="M1341.9336,265.312a294.9042,294.9042,0,0,0-29.8359,13.9609q-11.1168,6.2052-17.3213,12.3067-6.1041,6.1024-12.3067,17.1665a295.13,295.13,0,0,0-14.1679,30.3008h-4.24a307.5565,307.5565,0,0,0-14.2715-30.3008q-6.2036-11.0648-12.2021-17.1665-6.2051-6.1011-17.3223-12.3067a291.3466,291.3466,0,0,0-29.9385-13.9609v-4.24a287.5508,287.5508,0,0,0,30.042-13.961q11.1153-6.2051,17.2188-12.3061,5.9957-6.1011,12.2021-17.167a307.4127,307.4127,0,0,0,14.2715-30.3008h4.24a294.9976,294.9976,0,0,0,14.1679,30.3008q6.205,11.0669,12.3067,17.167,5.9955,6.1025,17.1152,12.3061a287.2774,287.2774,0,0,0,30.042,13.961Z" transform="translate(-539.3298 -179.4729)"/></svg>