<?xml version="1.0" encoding="utf-8"?>
<!-- Generator: Adobe Illustrator 22.1.0, SVG Export Plug-In . SVG Version: 6.00 Build 0)  -->
<svg version="1.1" xmlns="http://www.w3.org/2000/svg" xmlns:xlink="http://www.w3.org/1999/xlink" x="0px" y="0px" width="792px"
	 height="1224px" viewBox="0 0 792 1224" style="enable-background:new 0 0 792 1224;" xml:space="preserve">
<style type="text/css">
	.st0{display:none;}
	.st1{display:inline;}
	.st2{fill:#FFFFFF;}
</style>
<g id="Layer_1" class="st0">
	<g id="NSMTQ2.tif" class="st1">
		<g>
			<path class="st2" d="M-223.6,1118c0-382.8,0-765.7,0-1148.5c382.8,0,765.7,0,1148.5,0c0,382.8,0,765.7,0,1148.5
				C542.1,1118,159.2,1118-223.6,1118z M8,565.1c0.6,1.7,1.1,3.5,1.7,5.2c-19.6,11.5-22.6,41.8-51.7,44.4c4.6,1.9,9.1,3.8,14,5.8
				c-4,16.3-7.7,31.4-11.5,47.1c11,14.2,23.2,29.9,35.5,45.9c-5.9,0-12.6-0.2-19.3,0.1c-5.9,0.3-11.8,1.1-17.7,1.6
				c0.1,1.5,0.3,3.1,0.4,4.6c6,0.4,11.9,1.1,17.9,1.1c17.5,0.2,35-0.3,52.5,0.4c5,0.2,14.1,3.6,14.1,5.5c0.1,18.7,1,38-3.3,55.8
				c-2.7,10.8-17.1,13.3-27.6,8.1c-5.2-2.6-7.5-10.9-12.6-19c9.2-1.3,15-0.4,17.6-2.9c5.2-4.9,12.9-12.9,11.6-17.3
				c-1.8-6.1-10.5-12.9-17.1-14c-5.5-1-13.8,4.5-18.4,9.4c-9.6,10.4-11,23.3-4.9,36.3c6.2,13.2,17.2,19.1,31.5,18.4
				c15.1-0.7,27.1-8.5,30.2-22.8c3-14,2.5-29,1.5-43.4c-0.8-10.5,2-14.8,12.4-14.4c8.5,0.3,16.9,0,25.4,0c211.1,0,422.3,0,633.4-0.1
				c7.9,0,15.7-1.1,23.6-1.7c-0.1-1.8-0.2-3.5-0.4-5.3c-226.8,0-453.5,0-680.4,0c9.2-10.8,20.3-18.9,24.2-29.6
				c5.4-15,14.4-15.7,27.1-15.7c203.2,0.2,406.5,0.2,609.7,0.1c6.6,0,13.1-1,19.7-1.5c-0.1-1.6-0.2-3.1-0.2-4.7
				c-7.5-0.5-15.1-1.4-22.6-1.4c-201-0.1-402-0.1-602.9-0.1c-5.1,0-10.4,0.8-15.2-0.4c-3.7-0.9-8.2-3.7-9.8-6.9
				c-5.7-11.3-10.4-23.1-16.6-37.5c222.4,0,444.8,0,667.2,0c0-1.8,0.1-3.6,0.1-5.4c-6.9-0.4-13.9-1.2-20.8-1.2
				c-215.7-0.1-431.3,0-647-0.2c-9.5,0-19.1-1.3-28.5-2.8c-15.2-2.5-22.2-19.9-11.2-30.4c6-5.7,16.5-9.3,25-9.3
				c159.8-0.5,319.5-0.4,479.3-0.4c62.1,0,124.2,0.1,186.3-0.1c5.8,0,11.6-1.6,17.4-2.5c-0.2-1.9-0.4-3.8-0.6-5.7
				c-229.7,0-459.4,0-691.3,0c4.6-8.3,9.1-13.4,10.2-19.1c4.4-23.4,19.9-24.4,39.7-24.3c206.6,0.6,413.3,0.4,619.9,0.3
				c7.3,0,14.5-1.2,21.8-1.9c-0.1-1.9-0.3-3.8-0.4-5.8c-223.4,0-446.8,0-670.9,0c-0.6-8.5,0.2-14.4-1.5-19.6
				c-4.7-14.3-8.1-29.7-16.1-42c-10.5-16.1-26.8-12.7-32.3,5.8c-3.6,12.3-5.8,25.5-5.6,38.3c0.2,14.7-5.7,18.4-19.1,17.5
				c-14.2-1-28.4-0.2-42.6-0.2c-0.1,2.6-0.1,5.2-0.2,7.9c13.9,0,27.9-0.1,41.8,0c22.7,0.2,18-1.8,21.5,31.4
				C23.8,563.4,10.1,557.6,2,558c-14.4,0.8-28.8,0.2-43.2,0.2c0,2.3,0.1,4.5,0.1,6.8C-24.8,565.1-8.4,565.1,8,565.1z M543.6,836.5
				c9.4,1.5,17,3.8,24.6,3.8c17-0.1,31.2-13,31.4-27.2c0.2-14.5-13.6-26.8-30.8-27.7c-21.4-1.1-35.4,11.2-35.7,33.5
				c-0.4,31,0.4,62.1,0.8,93.1c0.1,7.8-0.4,14.4-10.7,15.7c-23.5,2.8-46.9,6.9-70.5,9.2c-3.9,0.4-12-5.4-12.1-8.6
				c-1-26.2-0.6-52.5-0.6-79.4c7.3,1.8,12.7,3.7,18.2,4.4c18.5,2.4,36.1-10.7,36.8-26.9c0.6-15.9-14.3-28.3-33.6-27.9
				c-20.4,0.4-32.1,11.9-32.2,33.1c-0.1,43.5,0.2,86.9,0.4,130.4c0,3.7,1.2,7.5,2.1,13.1c30.5-3.8,59.9-8.9,89.6-10.8
				c18.5-1.2,23.5-8,22.8-25.9C542.6,904.7,543.6,871,543.6,836.5z M376,821.4c0,31.4,0,60,0,88c-10.6-0.8-19.7-2.8-28.3-1.8
				c-19.6,2.4-30.9,20.5-23.9,36.3c5.9,13.6,22.5,21.7,38.3,17.9c15-3.6,25.4-11.9,25.3-29.1c-0.2-45.1-0.1-90.2-0.4-135.3
				c0-3.7-1.4-7.4-2.5-12.8c-34.9,4.5-68.9,8.5-102.8,13.8c-3.5,0.5-8,8.5-8.2,13.2c-0.9,18.6-0.3,37.2-0.3,55.8
				c0,18.3,0,36.7,0,55.4c-10.3-1.2-18-3-25.7-2.8c-16.5,0.4-29.8,12.2-30.6,26c-0.8,13.6,11.4,25.9,28.3,28.3
				c21.9,3.2,37.2-9.7,37.4-32.2c0.3-31-0.3-62,0.4-93c0.1-5.3,4.3-14.6,7.8-15.2C318.4,829,346.2,825.6,376,821.4z M738.8,907.5
				c-11.6,0-20.7-1.1-29.4,0.2c-21.1,3.1-31.9,23.7-21.7,39.8c7.4,11.6,24.3,17.4,39,13.2c14.7-4.2,23-13.3,22.9-29.3
				c-0.2-44.6-0.1-89.1-0.4-133.7c0-3.7-1.4-7.4-2.5-12.9c-34.9,4.4-68.9,8.4-102.8,13.6c-3.7,0.6-9,8.1-9.1,12.5
				c-0.7,19.7,0.2,39.4,0.3,59.2c0.1,17.7,0,35.3,0,54c-7.7-1.8-12-3.1-16.4-3.7c-15.1-1.9-29.6,0.9-35.9,15.7
				c-3.1,7.3-1.9,19.5,2.4,26.1c8.5,13,23,15.2,37.8,10.9c14.9-4.3,21.9-14.3,21.7-30.1c-0.4-36.7,0.1-73.3-0.5-110
				c-0.2-11.1,3-16.5,14.6-17.4c15.1-1.1,30.2-3.9,45.3-5.7c34.3-4.1,34.3-4,34.3,30.2C738.8,863.1,738.8,886,738.8,907.5z
				 M74.1,954.2c0-36.1,0-70.3,0-105.4c6.6,1.7,11.5,3.4,16.4,4.1c18.9,3,37.8-10.5,38.2-27c0.4-15.7-14.9-28-34.1-27.6
				c-20.1,0.5-32.2,11.9-32.3,33.1c-0.2,45.1,0.7,90.2,1.2,135.3c0,2.1,1.2,4.1,2.4,8c34.3-4.2,68.4-7.9,102.2-13.1
				c3.7-0.6,8.7-9.4,8.8-14.6c0.8-25.3,0.3-50.7,0.2-76.1c0-11.4,0-22.9,0-33.5c11.9,1,20.9,3.2,29.5,2.2
				c15.9-1.9,27.2-14.9,26.4-28.1c-0.7-13.4-13.1-24.6-28.8-26.1c-22.3-2.2-37.5,11.3-37.8,34.8c-0.4,35.5,0.5,71-0.2,106.5
				c-0.1,5.7-5.1,15.6-9.1,16.3C130.1,947.8,102.8,950.6,74.1,954.2z M542.7,74.8c-2.5,1.4-5,2.8-7.5,4.3c0,40.2,0,80.4,0,121.7
				c-8.5-1.8-15.2-5.5-20.3-3.8c-11.1,3.6-23.6,7.9-31.2,16c-4.2,4.6-2.8,19.1,1.4,25.9c8.8,14.1,24.3,15.5,39.3,11.1
				c13.9-4.1,21.4-14,21.2-29c-0.1-12.1,0-24.1,0-39.8c17.4,18,42.9,25.3,32.5,57.7c13-10.7,12-20.2,10.6-31.5
				c-2-16-3.7-32.9-0.4-48.3c3.5-16.4-1.1-26.5-11.8-37.5c-11.1-11.5-20.3-24.9-30-37.6C544.5,81.4,543.9,77.9,542.7,74.8z
				 M398.4,199.6c11.5-9.3,14.4-56.8,3.8-70c-13.9-17.2-28.2-34.1-42.4-51c-0.5-0.5-2.1-0.1-5.8-0.1c0,40.5,0,81.2,0,123.4
				c-6.5-1.8-10.2-3-13.9-3.9c-15.9-3.9-30.4-0.3-38.1,13.9c-3.7,6.9-3.2,19.4,0.7,26.2c8.4,14.5,24,16.1,39,12.1
				c14.7-4,22-14.4,21.6-30.3c-0.5-23.4-0.1-46.8-0.1-71.5C395.5,168.7,400,175.6,398.4,199.6z M216.1,164.4
				c13.8-15.8,11.1-27.8-3.8-42.5c-11.7-11.6-20.9-25.7-31.3-38.7c-1.6-2-3.5-3.7-5.2-5.5c-1.4,0.2-2.8,0.5-4.3,0.7
				c0,40.7,0,81.3,0,122.9c-9.3-2.1-15.2-4.2-21.3-4.7c-17.7-1.5-34.5,11.5-35.3,26.8c-0.8,15,13.4,27.7,31.7,28.3
				c21.5,0.7,34-10.7,34.3-32.3c0.4-35.3,0.1-70.5,0.1-109.4C197.6,127.8,223.5,134.6,216.1,164.4z M13,202
				c-7.8-2.3-11.5-3.6-15.3-4.4c-14.5-3.1-28.2-0.1-35.7,12.6c-4,6.9-4.8,18.9-1.5,26.2c6.2,13.8,20.3,16.6,34.7,15
				c16.3-1.9,27.1-12.1,27.3-29c0.4-45-0.4-90.1-1.1-135.1c0-3-2.6-5.9-4-8.8c-1.4,0.3-2.9,0.6-4.3,0.8C13,119.4,13,159.5,13,202z
				 M114.8,421.9c41.1,14.7,85.7-14.4,89.4-55.2c2.8-30.6-11.3-53.9-36.7-60.8c-18.9-5.1-41.3,4.8-45.4,22.1
				c-1.6,6.8,0.9,17.5,5.6,22c3.8,3.6,16.8,3.1,20.6-0.6c4.4-4.5,3.6-14.4,4.3-22.1c0.2-2.2-2.2-4.7-3.6-7.4
				c22.2-3,37.6,9.7,40.7,32.6C195.2,391.6,172.5,413.2,114.8,421.9z M747.2,78.8c-2.2-0.1-4.5-0.2-6.7-0.3c0,40.2,0,80.5,0,122.3
				c-8-1.7-12.3-2.9-16.6-3.6c-14.5-2.2-28.1,1-35.2,14c-3.6,6.7-4.1,17.9-0.9,24.9c6.3,13.9,20.2,16.8,34.5,15.3
				c17.3-1.8,27.2-12.6,27.3-30.4c0.2-43.3,0-86.6-0.2-129.9C749.3,86.9,747.9,82.9,747.2,78.8z M-34.6,816.1
				c-1.6-0.3-3.1-0.6-4.7-0.8c-1.4,2.1-4,4.3-4,6.4c-0.4,46.2-0.7,92.4-0.4,138.7c0,3,5.6,8.9,7.4,8.5c14.9-3.4,31-5.6,43.8-13.1
				c11.1-6.4,14.3-20.6,6.4-33c-7.7-12-19.6-14.2-32.8-10.2c-4.5,1.3-8.7,3.4-15.8,6.1C-34.6,882.9-34.6,849.5-34.6,816.1z
				 M37.9,384.8c-4.6-3.6-10.9-8.5-17.1-13.5c6.4-5.3,12.7-10.7,19.2-16.1c-6.4-3.3-14.5-5.2-18.5-10.3c-3.7-4.8-3-13-4.2-19.6
				c-7.5,9.5-9.3,21.6-15.7,24.9c-15.1,8-10.3-14-14.9-15.6c-11.4,9.1-20,16-29.6,23.7c6.1,6.1,28.8,0,19.1,20.7
				c-6.6,1.6-13,3.2-19.4,4.8c7.1,6.4,15.8,7.4,19.9,12.3c4,4.7,3.2,13.4,4.5,20.3c1.6-0.2,3.2-0.3,4.9-0.5
				c0.9-6.3-0.2-14.2,3.1-18.6c3.3-4.3,11.1-5.1,17.3-7.6c2.7,8.8,4.3,14.3,5.9,19.3C21.2,400.5,29.4,392.8,37.9,384.8z
				 M592.9,424.2c14.7-7.8,36.8-70.2,39.3-99.3c-9.5,7-18.5,13.8-28,20.8c-2.1-3.6-3-5-3.7-6.5c-4.4-10.7-13-15.8-22.6-10.2
				c-5.1,3-9.4,12.7-8.9,19.1c0.9,12.4,11.5,13.7,21.7,12.2c7-1,13.8-2.9,22.8-4.9C606.6,378.2,600.5,398.8,592.9,424.2z
				 M380.3,355.3c-18.3-14.5-36.6-14.1-54.9-2c-2-4.6-3.5-8.2-6.6-15.4c0,23.6,0,42.9,0,62.1c0.7,0.1,1.4,0.2,2.2,0.3
				c1.2-3.2,2.5-6.5,4.2-10.9c18.4,14.4,36.7,13,54.6-0.1c1.6,4.4,2.8,7.7,4,11c0.6-0.2,1.3-0.3,1.9-0.5c0-19.3,0-38.6,0-57.9
				c-0.8-0.1-1.7-0.1-2.5-0.2C382.2,346,381.4,350.1,380.3,355.3z M500.6,412.9c-5.2-7.7-8.7-12.7-11.9-17.8
				c-9.1-14.6-19.2-29-3.5-45.7c1.3-1.4,1.4-5.7,0.3-7.5c-5.6-9.4-11.7-18.5-20-31.2c4.9,35.9,4.9,35.9-13.7,49.9
				c3.2,5.1,6.9,10.1,9.6,15.6c1.7,3.6,3.6,8.5,2.4,11.8c-6.4,17.5-3.7,27.7,11.5,38.5C472.1,406.9,472.4,406.6,500.6,412.9z
				 M294.8,1074.7c-17.9,0-34.4,0.2-50.9,0c-15.6-0.2-31.1-1.2-46.7-1c-4.8,0.1-9.9,2.3-14.3,4.6c-1.3,0.7-1.6,6.9-0.6,7.5
				c3.9,2.3,8.4,4,12.8,4.7c14.5,2.3,29,4,43.5,5.8c2.1,0.3,5.4,0.2,6.3-1c7.4-10.8,16.7-6,26.3-4.5c7.4,1.2,15.2-0.5,23.6-0.9
				C294.8,1083.7,294.8,1078.8,294.8,1074.7z M716.1,344.1c-18.5,0.2-32.5,12.1-32.3,27.5c0.1,15,15,27.6,32.7,27.8
				c18.4,0.2,33.6-13.2,33-29C748.9,354.8,735.1,343.9,716.1,344.1z M376.4,1074.8c-0.1,1.5-0.4,7.2-0.9,15.1c30.4,0,59.3,0,88.5,0
				c-5.2-13.4-9.2-21-26.7-16.2C419.6,1078.6,399.5,1074.8,376.4,1074.8z M496.8,1074.7C496.8,1074.7,496.8,1074.7,496.8,1074.7
				c-6-0.1-12.1-1-17.8,0.3c-3.4,0.7-6.1,4.8-9.1,7.4c3.2,2.8,6.5,8.1,9.6,8.1c12-0.3,24-2.3,36-3.9c2.9-0.4,5.6-1.6,8.4-2.4
				c-2.4-3.2-4.3-8.4-7.3-9.1C510.3,1073.8,503.5,1074.7,496.8,1074.7z M339.3,1070.3c-0.9,3.4-1.7,6.8-2.6,10.3
				c6.1,4,11.9,9.8,18.6,11.1c3.6,0.7,10-5.5,12.6-10.1c1.4-2.4-2.2-11.2-4.5-11.6C355.6,1068.9,347.4,1070,339.3,1070.3z
				 M323.3,1098.3c3.7-7.9,6.6-14,9.3-19.7c-11.1-2.4-20.3-4.3-28.9-6.2C292.3,1095.8,318.8,1085.6,323.3,1098.3z M390.9,400.3
				c1.2,0,2.5,0,3.7,0c0-19.6,0-39.1,0-58.7c-1.2,0-2.5,0.1-3.7,0.1C390.9,361.2,390.9,380.7,390.9,400.3z M309.2,400.4
				c1.3-0.1,2.5-0.1,3.8-0.2c0-19.5,0-39.1,0-58.6c-1.3,0-2.5,0.1-3.8,0.1C309.2,361.3,309.2,380.8,309.2,400.4z M221.2,365.7
				c5.3-7.5,11-12.3,10.3-15.4c-1.1-4.5-7-7.8-10.9-11.6c-3.5,3.6-9.8,7.2-9.8,10.9C210.7,353.9,216,358.3,221.2,365.7z
				 M221.1,368.3c-5,7.4-10.3,11.8-10.4,16.3c0,3.5,6.4,7.2,10,10.7c3.8-3.9,9.7-7.3,10.6-11.8C232.1,380.3,226.3,375.6,221.1,368.3
				z"/>
			<path d="M8,565.1c-16.4,0-32.8,0-49.2,0c0-2.3-0.1-4.5-0.1-6.8c14.4,0,28.9,0.5,43.2-0.2c8.2-0.4,21.8,5.4,20.1-11.7
				c-3.5-33.3,1.2-31.2-21.5-31.4c-13.9-0.1-27.9,0-41.8,0c0.1-2.6,0.1-5.2,0.2-7.9c14.2,0,28.5-0.7,42.6,0.2
				c13.4,0.9,19.3-2.8,19.1-17.5c-0.2-12.8,2-26,5.6-38.3c5.5-18.5,21.8-21.9,32.3-5.8c8,12.3,11.5,27.7,16.1,42
				c1.7,5.2,0.9,11.1,1.5,19.6c224.1,0,447.5,0,670.9,0c0.1,1.9,0.3,3.8,0.4,5.8c-7.3,0.7-14.5,1.9-21.8,1.9
				c-206.6,0.1-413.3,0.3-619.9-0.3c-19.8-0.1-35.3,0.9-39.7,24.3c-1.1,5.7-5.6,10.8-10.2,19.1c231.9,0,461.6,0,691.3,0
				c0.2,1.9,0.4,3.8,0.6,5.7c-5.8,0.9-11.6,2.5-17.4,2.5c-62.1,0.2-124.2,0.1-186.3,0.1c-159.8,0-319.5-0.1-479.3,0.4
				c-8.5,0-19.1,3.6-25,9.3c-11,10.6-4,27.9,11.2,30.4c9.4,1.6,19,2.8,28.5,2.8c215.7,0.2,431.3,0.1,647,0.2
				c6.9,0,13.9,0.8,20.8,1.2c0,1.8-0.1,3.6-0.1,5.4c-222.4,0-444.7,0-667.2,0c6.2,14.3,10.9,26.2,16.6,37.5c1.6,3.2,6.1,6,9.8,6.9
				c4.8,1.2,10.1,0.4,15.2,0.4c201,0,402,0,602.9,0.1c7.5,0,15.1,0.9,22.6,1.4c0.1,1.6,0.2,3.1,0.2,4.7c-6.6,0.5-13.1,1.5-19.7,1.5
				c-203.2,0.1-406.5,0.1-609.7-0.1c-12.7,0-21.8,0.7-27.1,15.7c-3.8,10.7-15,18.8-24.2,29.6c226.8,0,453.6,0,680.4,0
				c0.1,1.8,0.2,3.5,0.4,5.3c-7.9,0.6-15.7,1.7-23.6,1.7c-211.1,0.1-422.3,0.1-633.4,0.1c-8.5,0-16.9,0.3-25.4,0
				c-10.5-0.4-13.2,3.9-12.4,14.4c1,14.4,1.5,29.4-1.5,43.4c-3.1,14.4-15,22.1-30.2,22.8c-14.3,0.7-25.3-5.2-31.5-18.4
				c-6.1-13-4.7-25.9,4.9-36.3c4.5-4.9,12.8-10.4,18.4-9.4c6.6,1.1,15.3,7.9,17.1,14c1.3,4.3-6.5,12.4-11.6,17.3
				c-2.6,2.5-8.4,1.6-17.6,2.9c5.1,8.1,7.4,16.4,12.6,19c10.5,5.2,24.9,2.7,27.6-8.1c4.4-17.9,3.4-37.1,3.3-55.8
				c0-1.9-9.1-5.3-14.1-5.5c-17.5-0.7-35-0.2-52.5-0.4c-6-0.1-11.9-0.7-17.9-1.1c-0.1-1.5-0.3-3.1-0.4-4.6
				c5.9-0.6,11.8-1.4,17.7-1.6c6.7-0.3,13.4-0.1,19.3-0.1c-12.3-15.9-24.5-31.7-35.5-45.9c3.8-15.7,7.5-30.8,11.5-47.1
				c-4.8-2-9.4-3.9-14-5.8c29.2-2.6,32.1-32.9,51.7-44.4C9.1,568.5,8.6,566.8,8,565.1z M-15.5,668.7c2.7,29.2,27.8,44.7,56.9,36.6
				c-1.4-9.1-2.2-18.7-4.8-27.7c-1-3.6-6.1-8.2-9.7-8.5C13.3,668.1-0.5,668.7-15.5,668.7z M44.3,452.8c-1.9-0.1-3.9-0.1-5.8-0.2
				c-2.1,15.2-4.8,30.4-5.9,45.7c-0.2,2.6,5.8,7.8,9.2,8c3.7,0.2,10.8-3.7,11.1-6.2C54.3,483.7,56.7,466.6,44.3,452.8z M49.4,705.5
				c17.5-8,26.1-18.3,27.5-35.3c-11.6,0-21.2,0-32.7,0C46,682.2,47.5,692.5,49.4,705.5z M73.9,658.5c-4.3-18.9-13.4-26.9-31.4-27.6
				C38.2,660.4,43.8,665.3,73.9,658.5z M8.1,619.1c-11.3-0.4-29.3,25.2-23.8,36.8c1,2.2,5.4,4.3,7.8,4c2.3-0.3,5.3-3.6,6.1-6.1
				C1.9,642.2,4.9,630.5,8.1,619.1z M6.8,659.4c12.2,0,18.5,0,27.2,0c-1.7-9.7-3.2-17.7-4.6-25.6c-1.6-0.3-3.2-0.7-4.8-1
				C19.6,640.4,14.5,648,6.8,659.4z M35.1,543.5c6.3-10.6,10.6-17.8,15.3-25.6C30.9,513.8,29.1,516.4,35.1,543.5z"/>
			<path d="M543.6,836.5c0,34.4-1,68.2,0.4,101.8c0.8,17.9-4.3,24.7-22.8,25.9c-29.7,1.9-59.1,6.9-89.6,10.8
				c-0.9-5.6-2.1-9.4-2.1-13.1c-0.3-43.5-0.6-86.9-0.4-130.4c0.1-21.1,11.7-32.7,32.2-33.1c19.3-0.3,34.3,12.1,33.6,27.9
				c-0.7,16.2-18.3,29.2-36.8,26.9c-5.5-0.7-10.9-2.6-18.2-4.4c0,27-0.4,53.2,0.6,79.4c0.1,3.2,8.2,9,12.1,8.6
				c23.6-2.3,46.9-6.4,70.5-9.2c10.4-1.2,10.8-7.8,10.7-15.7c-0.4-31-1.2-62.1-0.8-93.1c0.3-22.3,14.3-34.6,35.7-33.5
				c17.3,0.9,31,13.3,30.8,27.7c-0.2,14.3-14.4,27.2-31.4,27.2C560.6,840.3,553,838,543.6,836.5z M443.7,949.6
				c0.2,1.4,0.4,2.8,0.5,4.2c28.6-3.7,57.2-7.4,85.8-11.1c-0.2-1.6-0.4-3.2-0.6-4.8C500.9,941.8,472.3,945.7,443.7,949.6z"/>
			<path d="M376,821.4c-29.9,4.2-57.7,7.5-85.1,12.5c-3.5,0.6-7.7,9.9-7.8,15.2c-0.7,31-0.2,62-0.4,93
				c-0.2,22.5-15.5,35.4-37.4,32.2c-16.9-2.5-29.2-14.7-28.3-28.3c0.8-13.8,14.1-25.6,30.6-26c7.7-0.2,15.4,1.6,25.7,2.8
				c0-18.7,0-37,0-55.4c0-18.6-0.6-37.2,0.3-55.8c0.2-4.7,4.8-12.7,8.2-13.2c33.8-5.3,67.9-9.3,102.8-13.8c1.1,5.4,2.5,9.1,2.5,12.8
				c0.2,45.1,0.2,90.2,0.4,135.3c0.1,17.2-10.3,25.5-25.3,29.1c-15.8,3.8-32.3-4.3-38.3-17.9c-7-15.9,4.3-33.9,23.9-36.3
				c8.7-1.1,17.7,1,28.3,1.8C376,881.5,376,852.8,376,821.4z M285.8,817.5c0.1,1.6,0.2,3.3,0.2,4.9c28.2-3.9,56.5-7.9,84.7-11.8
				c-0.2-1.4-0.4-2.9-0.6-4.3C342,810,313.9,813.7,285.8,817.5z"/>
			<path d="M542.7,74.8c1.2,3.1,1.9,6.6,3.8,9.1c9.7,12.8,18.9,26.2,30,37.6c10.7,11,15.3,21.2,11.8,37.5
				c-3.3,15.4-1.5,32.3,0.4,48.3c1.4,11.3,2.4,20.8-10.6,31.5c10.4-32.4-15.1-39.7-32.5-57.7c0,15.7-0.1,27.8,0,39.8
				c0.2,15-7.3,25-21.2,29c-15,4.4-30.6,2.9-39.3-11.1c-4.2-6.7-5.6-21.3-1.4-25.9c7.5-8.1,20-12.4,31.2-16c5-1.6,11.8,2,20.3,3.8
				c0-41.4,0-81.5,0-121.7C537.7,77.6,540.2,76.2,542.7,74.8z M547.6,149.6c2.2,20,13.3,33.3,33.2,44.5
				C581.5,167.3,559.6,162.2,547.6,149.6z M547.3,114c3,20,13.3,34.3,33.9,44.5C581.4,132.3,559.6,126.7,547.3,114z"/>
			<path d="M398.4,199.6c1.6-24-3-30.9-35.1-51.1c0,24.7-0.4,48.1,0.1,71.5c0.3,15.9-6.9,26.3-21.6,30.3c-15,4.1-30.6,2.4-39-12.1
				c-4-6.9-4.4-19.4-0.7-26.2c7.7-14.3,22.2-17.9,38.1-13.9c3.7,0.9,7.4,2.1,13.9,3.9c0-42.2,0-82.9,0-123.4c3.6,0,5.3-0.5,5.8,0.1
				c14.2,16.9,28.6,33.8,42.4,51C412.8,142.8,409.9,190.3,398.4,199.6z M392.8,159.3c2.1-1.6,4.1-3.2,6.2-4.7
				c0.8-23.1-22.4-27.8-32.2-42.7c-2.1,1.6-4.2,3.2-6.3,4.8C371.2,130.8,382,145.1,392.8,159.3z"/>
			<path d="M216.1,164.4c7.4-29.7-18.5-36.6-35.1-54.4c0,38.8,0.3,74.1-0.1,109.4c-0.2,21.7-12.7,33-34.3,32.3
				c-18.3-0.6-32.5-13.3-31.7-28.3c0.8-15.3,17.7-28.3,35.3-26.8c6,0.5,11.9,2.6,21.3,4.7c0-41.6,0-82.3,0-122.9
				c1.4-0.2,2.8-0.5,4.3-0.7c1.7,1.8,3.6,3.6,5.2,5.5c10.4,13,19.6,27.1,31.3,38.7C227.2,136.6,229.9,148.5,216.1,164.4z"/>
			<path d="M13,202c0-42.5,0-82.6,0-122.7c1.4-0.3,2.9-0.6,4.3-0.8c1.4,2.9,3.9,5.9,4,8.8c0.6,45,1.5,90.1,1.1,135.1
				c-0.1,17-11,27.2-27.3,29c-14.4,1.6-28.5-1.2-34.7-15c-3.3-7.3-2.5-19.3,1.5-26.2c7.4-12.7,21.2-15.7,35.7-12.6
				C1.5,198.4,5.2,199.7,13,202z"/>
			<path d="M114.8,421.9c57.7-8.7,80.3-30.3,75-69.4c-3.1-22.9-18.5-35.6-40.7-32.6c1.4,2.7,3.8,5.1,3.6,7.4
				c-0.7,7.7,0.1,17.6-4.3,22.1c-3.7,3.8-16.8,4.2-20.6,0.6c-4.8-4.5-7.2-15.2-5.6-22c4-17.3,26.4-27.2,45.4-22.1
				c25.4,6.8,39.5,30.2,36.7,60.8C200.5,407.5,156,436.6,114.8,421.9z"/>
			<path d="M747.2,78.8c0.7,4.1,2.1,8.2,2.1,12.3c0.2,43.3,0.4,86.6,0.2,129.9c-0.1,17.8-10,28.6-27.3,30.4
				c-14.3,1.5-28.3-1.3-34.5-15.3c-3.1-7-2.7-18.2,0.9-24.9c7.1-13,20.7-16.2,35.2-14c4.3,0.6,8.6,1.8,16.6,3.6
				c0-41.8,0-82.1,0-122.3C742.7,78.6,744.9,78.7,747.2,78.8z M713.8,244.1c14.2-4.4,24.6-7.1,24-20.2c-0.6-12.6-10.9-16.3-21.6-16
				c-10.6,0.3-22.2,4.6-20.1,16.9C697.4,232,707.6,237.7,713.8,244.1z"/>
			<path d="M-34.6,816.1c0,33.4,0,66.7,0,102.6c7.1-2.8,11.3-4.8,15.8-6.1c13.2-4,25.1-1.8,32.8,10.2c7.9,12.4,4.7,26.6-6.4,33
				c-12.9,7.5-28.9,9.6-43.8,13.1c-1.8,0.4-7.4-5.5-7.4-8.5c-0.3-46.2,0-92.4,0.4-138.7c0-2.2,2.6-4.3,4-6.4
				C-37.7,815.6-36.1,815.9-34.6,816.1z M-31,956.2c19.2,3.3,37.2-5.2,36.4-18.8c-0.3-5.3-8.1-13.5-13.5-14.5
				C-22.5,920.2-31.6,934.5-31,956.2z"/>
			<path d="M37.9,384.8c-8.5,8-16.6,15.7-25.6,24.1c-1.5-5.1-3.2-10.5-5.9-19.3c-6.2,2.5-14.1,3.3-17.3,7.6
				c-3.4,4.4-2.3,12.3-3.1,18.6c-1.6,0.2-3.2,0.3-4.9,0.5c-1.3-6.9-0.5-15.6-4.5-20.3c-4.1-4.9-12.8-5.9-19.9-12.3
				c6.4-1.6,12.7-3.1,19.4-4.8c9.7-20.7-13-14.6-19.1-20.7c9.5-7.6,18.2-14.5,29.6-23.7c4.6,1.6-0.2,23.6,14.9,15.6
				c6.4-3.4,8.2-15.4,15.7-24.9c1.2,6.7,0.5,14.9,4.2,19.6c4,5.1,12.1,7,18.5,10.3c-6.5,5.4-12.8,10.8-19.2,16.1
				C27,376.3,33.3,381.2,37.9,384.8z M-1.4,356.9c-5.1,7.1-10.2,11.1-9.8,14.5c0.4,3.3,6.4,8.5,9.8,8.3c3.7-0.2,9.3-5.1,10-8.7
				C9.1,367.9,3.7,363.8-1.4,356.9z"/>
			<path d="M592.9,424.2c7.6-25.3,13.8-45.9,20.6-68.7c-9,2-15.9,3.9-22.8,4.9c-10.2,1.4-20.8,0.2-21.7-12.2
				c-0.4-6.3,3.8-16.1,8.9-19.1c9.7-5.6,18.3-0.5,22.6,10.2c0.6,1.5,1.6,2.8,3.7,6.5c9.5-7.1,18.6-13.8,28-20.8
				C629.7,354,607.5,416.3,592.9,424.2z"/>
			<path d="M380.3,355.3c1.1-5.2,2-9.3,2.8-13.4c0.8,0.1,1.7,0.1,2.5,0.2c0,19.3,0,38.6,0,57.9c-0.6,0.2-1.3,0.3-1.9,0.5
				c-1.2-3.3-2.4-6.6-4-11c-17.9,13.1-36.2,14.5-54.6,0.1c-1.7,4.4-2.9,7.7-4.2,10.9c-0.7-0.1-1.4-0.2-2.2-0.3c0-19.3,0-38.5,0-62.1
				c3.1,7.2,4.6,10.8,6.6,15.4C343.6,341.2,362,340.8,380.3,355.3z M353,395.6c9-10.5,19.3-17,19.9-24.3c1-12-10.5-15.8-21.5-15.5
				c-11.1,0.3-22.3,4.6-20.3,16.7C332.3,379.8,343,385.5,353,395.6z"/>
			<path d="M500.6,412.9c-28.2-6.3-28.6-6-25.2,13.6c-15.2-10.8-17.9-21-11.5-38.5c1.2-3.2-0.7-8.2-2.4-11.8
				c-2.6-5.5-6.4-10.5-9.6-15.6c18.6-14,18.6-14,13.7-49.9c8.3,12.7,14.4,21.8,20,31.2c1.1,1.9,1,6.1-0.3,7.5
				c-15.8,16.7-5.6,31.1,3.5,45.7C492,400.2,495.5,405.2,500.6,412.9z"/>
			<path d="M294.8,1074.7c0,4.1,0,9,0,15c-8.4,0.4-16.2,2.1-23.6,0.9c-9.6-1.6-18.9-6.3-26.3,4.5c-0.8,1.2-4.2,1.3-6.3,1
				c-14.5-1.8-29.1-3.6-43.5-5.8c-4.5-0.7-9-2.4-12.8-4.7c-1-0.6-0.7-6.8,0.6-7.5c4.4-2.3,9.5-4.5,14.3-4.6
				c15.6-0.2,31.1,0.8,46.7,1C260.4,1074.9,276.9,1074.7,294.8,1074.7z"/>
			<path d="M716.1,344.1c18.9-0.2,32.8,10.7,33.4,26.2c0.6,15.9-14.5,29.2-33,29c-17.7-0.1-32.6-12.8-32.7-27.8
				C683.7,356.2,697.6,344.3,716.1,344.1z M717.8,395.4c9-10.9,18.6-17.3,19.4-24.8c1.4-12.7-10.5-15.6-21.1-15.3
				c-10.7,0.2-22.4,4-20,16.5C697.6,379.3,707.8,385,717.8,395.4z"/>
			<path d="M376.4,1074.8c23.1,0,43.3,3.8,61-1.1c17.4-4.8,21.5,2.7,26.7,16.2c-29.2,0-58.2,0-88.5,0
				C376,1082,376.3,1076.3,376.4,1074.8z"/>
			<path d="M496.8,1074.7c6.6,0,13.5-1,19.8,0.4c3,0.7,4.9,5.9,7.3,9.1c-2.8,0.8-5.6,2-8.4,2.4c-12,1.6-24,3.5-36,3.9
				c-3.1,0.1-6.4-5.2-9.6-8.1c3-2.6,5.7-6.7,9.1-7.4C484.7,1073.8,490.8,1074.7,496.8,1074.7
				C496.8,1074.7,496.8,1074.7,496.8,1074.7z"/>
			<path d="M339.3,1070.3c8.1-0.3,16.3-1.4,24.1-0.2c2.2,0.4,5.9,9.1,4.5,11.6c-2.6,4.6-9,10.8-12.6,10.1
				c-6.7-1.3-12.4-7.2-18.6-11.1C337.6,1077.1,338.5,1073.7,339.3,1070.3z"/>
			<path d="M323.3,1098.3c-4.5-12.6-30.9-2.4-19.6-25.9c8.5,1.8,17.8,3.8,28.9,6.2C329.8,1084.3,327,1090.4,323.3,1098.3z"/>
			<path d="M390.9,400.3c0-19.5,0-39,0-58.6c1.2,0,2.5-0.1,3.7-0.1c0,19.6,0,39.1,0,58.7C393.3,400.3,392.1,400.3,390.9,400.3z"/>
			<path d="M309.2,400.4c0-19.6,0-39.2,0-58.7c1.3,0,2.5-0.1,3.8-0.1c0,19.5,0,39.1,0,58.6C311.8,400.3,310.5,400.3,309.2,400.4z"/>
			<path d="M221.2,365.7c-5.1-7.4-10.5-11.8-10.5-16.1c0-3.6,6.3-7.2,9.8-10.9c3.9,3.8,9.8,7.1,10.9,11.6
				C232.2,353.4,226.4,358.2,221.2,365.7z"/>
			<path d="M221.1,368.3c5.2,7.3,10.9,12,10.2,15.3c-1,4.5-6.9,7.9-10.6,11.8c-3.6-3.6-10-7.2-10-10.7
				C210.8,380.1,216.1,375.7,221.1,368.3z"/>
			<path class="st2" d="M-15.5,668.7c15,0,28.8-0.6,42.5,0.4c3.5,0.3,8.6,4.9,9.7,8.5c2.6,9,3.3,18.6,4.8,27.7
				C12.2,713.4-12.9,697.9-15.5,668.7z"/>
			<path class="st2" d="M44.3,452.8c12.4,13.8,9.9,30.9,8.5,47.3c-0.2,2.6-7.4,6.5-11.1,6.2c-3.4-0.2-9.4-5.4-9.2-8
				c1.2-15.3,3.8-30.5,5.9-45.7C40.5,452.7,42.4,452.8,44.3,452.8z"/>
			<path class="st2" d="M49.4,705.5c-1.9-13-3.4-23.3-5.2-35.3c11.5,0,21.1,0,32.7,0C75.5,687.2,67,697.5,49.4,705.5z"/>
			<path class="st2" d="M73.9,658.5c-30.1,6.8-35.7,1.9-31.4-27.6C60.5,631.7,69.6,639.7,73.9,658.5z"/>
			<path class="st2" d="M8.1,619.1c-3.2,11.3-6.2,23.1-9.9,34.6c-0.8,2.6-3.8,5.8-6.1,6.1c-2.5,0.3-6.8-1.8-7.8-4
				C-21.2,644.3-3.2,618.7,8.1,619.1z"/>
			<path class="st2" d="M6.8,659.4c7.6-11.4,12.7-19,17.9-26.7c1.6,0.3,3.2,0.7,4.8,1c1.4,8,2.8,16,4.6,25.6
				C25.3,659.4,19.1,659.4,6.8,659.4z"/>
			<path class="st2" d="M35.1,543.5c-5.9-27.1-4.2-29.7,15.3-25.6C45.7,525.8,41.4,533,35.1,543.5z"/>
			<path class="st2" d="M443.7,949.6c28.6-3.9,57.1-7.8,85.7-11.7c0.2,1.6,0.4,3.2,0.6,4.8c-28.6,3.7-57.2,7.4-85.8,11.1
				C444.1,952.5,443.9,951,443.7,949.6z"/>
			<path class="st2" d="M285.8,817.5c28.1-3.7,56.2-7.5,84.3-11.2c0.2,1.4,0.4,2.9,0.6,4.3c-28.2,3.9-56.5,7.9-84.7,11.8
				C285.9,820.7,285.8,819.1,285.8,817.5z"/>
			<path class="st2" d="M547.6,149.6c12,12.6,33.9,17.7,33.2,44.5C561,182.9,549.9,169.6,547.6,149.6z"/>
			<path class="st2" d="M547.3,114c12.3,12.7,34.2,18.4,33.9,44.5C560.5,148.3,550.3,133.9,547.3,114z"/>
			<path class="st2" d="M392.8,159.3c-10.8-14.2-21.6-28.4-32.3-42.6c2.1-1.6,4.2-3.2,6.3-4.8c9.8,14.9,33.1,19.6,32.2,42.7
				C396.9,156.1,394.9,157.7,392.8,159.3z"/>
			<path class="st2" d="M713.8,244.1c-6.2-6.4-16.4-12.1-17.6-19.4c-2.1-12.2,9.4-16.6,20.1-16.9c10.7-0.3,21,3.4,21.6,16
				C738.4,237,727.9,239.7,713.8,244.1z"/>
			<path class="st2" d="M-31,956.2c-0.7-21.6,8.4-36,22.9-33.3c5.5,1,13.2,9.2,13.5,14.5C6.2,951-11.8,959.5-31,956.2z"/>
			<path class="st2" d="M-1.4,356.9c5.2,6.9,10.5,11,10,14c-0.7,3.6-6.3,8.5-10,8.7c-3.3,0.2-9.4-5-9.8-8.3
				C-11.6,368-6.5,364-1.4,356.9z"/>
			<path class="st2" d="M353,395.6c-10-10.1-20.6-15.8-21.9-23.1c-2.1-12.1,9.2-16.4,20.3-16.7c11.1-0.3,22.6,3.6,21.5,15.5
				C372.2,378.6,362,385.1,353,395.6z"/>
			<path class="st2" d="M717.8,395.4c-10-10.4-20.3-16.1-21.7-23.5c-2.4-12.6,9.2-16.3,20-16.5c10.7-0.2,22.6,2.6,21.1,15.3
				C736.4,378.1,726.8,384.5,717.8,395.4z"/>
		</g>
	</g>
</g>
<g id="Layer_2">
	<path class="st0" d="M96.7,728.9c116.7-14.7,227.8-26,337.6-45.3c16.3-2.9,36.6-43.1,37-66.4c2.9-144.4-0.9-288.8,0.8-433.2
		C473.2,88,535.3,33.4,625.9,42.2c63.8,6.2,114.3,52,117.3,106.3c3,53.8-42.7,106.7-107.5,114.4c-35.1,4.2-71.7-4.8-120.1-9
		c0,43.3-0.1,89.8,0,136.3c0.2,103.2,2.6,206.4-0.9,309.4c-0.7,21-20.7,57.1-35.9,59.4c-137.5,21.1-276,36.3-415.5,53.3
		c-4.8-15.7-9.5-24.1-9.6-32.5c-2.2-183.4-5.6-366.7-4.9-550.1C49.1,143.3,98.3,97,180.3,95.1c78-1.8,140,48.5,138.5,112.3
		c-1.6,67-78.4,121.8-155.4,109.7c-20.1-3.1-39.6-9.9-66.7-16.9C96.7,442.9,96.7,582.3,96.7,728.9z"/>
	<path d="M694.1,538.8c0-87.4,0-180.5,0-273.5c0-139-0.1-139.3-139.7-122.8c-61.4,7.3-122.5,18.5-184.1,23.2
		c-47.5,3.6-60.3,25.4-59.5,70.6c2.6,149,0.5,298.1,2.1,447.2c0.7,64.3-27.8,105-88.4,122.4c-60.2,17.3-119.3,8.2-153.9-44.5
		c-17.7-27-22.4-76.6-9.9-106.3c25.4-60.1,84.5-71.6,145.8-63.7c17.9,2.3,35.3,7.8,66.7,15c0-75.7,0.4-147.5-0.1-219.4
		c-0.6-80.2-4.4-160.6-1.4-240.7c0.7-18.1,21.9-48.6,37.1-50.9C446.6,74.2,585,58.1,726.9,40c4.4,22.2,9.9,37.3,10,52.4
		c0.9,181.2,0.7,362.4,1.5,543.5c0.3,65-33.7,102-93.2,119.2c-59.6,17.2-128.4-6.3-158.5-53.7c-41.6-65.3,2.5-149,88.1-161.7
		C610,534.5,646.8,538.8,694.1,538.8z"/>
</g>
</svg>
